<svg version="1.1" id="Layer_1" xmlns="http://www.w3.org/2000/svg" xmlns:xlink="http://www.w3.org/1999/xlink" x="0px" y="0px"
	 width="100%" viewBox="0 0 350 350" enable-background="new 0 0 350 350" xml:space="preserve">
<path fill="#000000" opacity="1.000000" stroke="none" 
	d="
M225.000000,351.000000 
	C150.000015,351.000000 75.500023,351.000000 1.000030,351.000000 
	C1.000020,234.333374 1.000020,117.666733 1.000010,1.000077 
	C117.666618,1.000051 234.333237,1.000051 350.999878,1.000026 
	C350.999939,117.666595 350.999939,234.333191 350.999969,350.999878 
	C309.166656,351.000000 267.333344,351.000000 225.000000,351.000000 
M76.995796,118.460632 
	C76.657532,120.001633 76.319275,121.542641 75.173149,123.406357 
	C75.118378,158.278015 75.058311,193.149658 75.049789,228.021332 
	C75.049637,228.664780 75.662720,229.308395 76.026154,230.701416 
	C77.916840,237.362228 81.636894,242.094635 89.347672,243.800919 
	C90.004143,243.871628 90.660599,244.004166 91.317078,244.004272 
	C147.508896,244.012772 203.700699,244.017288 259.892487,243.966965 
	C261.066681,243.965912 262.240265,243.322205 264.120392,242.943619 
	C271.668579,241.229874 275.164948,235.833115 277.000183,227.941284 
	C276.999268,194.242691 277.012421,160.544067 276.954651,126.845573 
	C276.951874,125.210838 276.325745,123.577164 275.999084,121.251884 
	C273.030029,115.186699 269.729675,109.501717 261.591064,108.186615 
	C261.265167,108.124229 260.939240,108.007202 260.613342,108.007179 
	C204.564789,108.002937 148.516235,108.001160 92.467712,108.052010 
	C91.316727,108.053047 90.166298,108.668755 88.240265,108.999168 
	C87.728012,109.053429 87.215767,109.107681 85.915787,109.083443 
	C78.547104,109.023460 74.959785,112.549049 76.995796,118.460632 
z"/>
<path fill="#232021" opacity="1.000000" stroke="none" 
	d="
M75.981018,123.083641 
	C76.319275,121.542641 76.657532,120.001633 77.332169,117.883438 
	C80.680191,114.591469 83.691849,111.876701 86.703514,109.161934 
	C87.215767,109.107681 87.728012,109.053429 89.095352,109.017342 
	C147.274948,109.019348 204.599457,109.003181 261.923981,108.987015 
	C269.729675,109.501717 273.030029,115.186699 275.968872,122.069443 
	C275.970642,156.540649 275.989960,190.194321 276.072235,223.847839 
	C276.076294,225.518402 276.627716,227.187637 276.924316,228.857483 
	C275.164948,235.833115 271.668579,241.229874 263.292725,242.927704 
	C260.290741,242.902634 258.116394,242.893448 255.639221,242.608521 
	C254.687363,242.224716 254.038406,242.022278 253.389389,242.022034 
	C211.522842,242.005890 169.656281,241.998627 127.789795,242.041687 
	C126.546295,242.042969 125.303352,242.588135 123.626389,242.944641 
	C121.441475,242.965500 119.690323,242.921432 117.635605,242.603195 
	C110.908234,242.511993 104.484428,242.694946 97.610901,242.947021 
	C94.437103,243.010223 91.713020,243.004318 88.988937,242.998398 
	C81.636894,242.094635 77.916840,237.362228 76.011642,229.861191 
	C75.991760,193.708527 75.986389,158.396088 75.981018,123.083641 
M264.357819,217.816269 
	C264.421082,217.717468 264.560120,217.563950 264.534943,217.529099 
	C264.404968,217.349167 264.232910,217.199661 264.006653,216.099503 
	C263.997620,202.772354 264.024506,189.444946 263.935425,176.118332 
	C263.923920,174.396515 263.312073,172.678726 262.945831,170.505859 
	C262.945831,170.505859 263.011932,170.056320 263.119781,169.117126 
	C263.084045,160.057770 263.048340,150.998413 262.943054,141.496765 
	C262.943054,141.496765 262.973206,141.050049 263.570648,140.589981 
	C263.379639,138.725098 263.188629,136.860229 262.979553,134.476044 
	C262.995239,134.303543 263.010925,134.131058 263.547424,133.627090 
	C263.502289,132.897736 263.457153,132.168381 263.412048,131.439011 
	C262.930634,131.702698 262.449249,131.966370 261.993652,132.913269 
	C260.855103,134.026367 259.841125,135.318588 258.551910,136.214966 
	C255.932449,138.036224 252.850021,139.295654 250.515869,141.403839 
	C243.281769,147.937546 236.327850,154.780624 229.228165,161.464279 
	C224.301819,166.101959 219.284897,170.643570 214.367661,175.290771 
	C212.179077,177.359146 212.673950,179.395065 214.799835,181.227570 
	C226.983978,191.730118 239.143890,202.261002 251.370010,212.714493 
	C255.087372,215.892883 258.988617,218.856247 263.283325,222.291321 
	C263.535706,220.853409 263.788116,219.415482 264.357819,217.816269 
M87.998726,217.724960 
	C87.998726,219.210526 87.998726,220.696091 87.998726,223.247971 
	C89.236053,221.923050 89.706863,221.418915 90.854691,220.862808 
	C107.322769,206.765091 123.790855,192.667374 141.009537,177.927094 
	C133.596207,171.277390 126.897202,165.223053 120.148079,159.225098 
	C109.902794,150.120117 99.622704,141.054337 88.629913,132.329926 
	C88.401764,133.901230 88.173607,135.472519 87.368996,137.630890 
	C87.248474,138.275909 87.023079,138.920822 87.022560,139.565948 
	C87.002876,164.129318 86.990334,188.692734 87.041832,213.256012 
	C87.044411,214.488083 87.625420,215.718964 87.998726,217.724960 
M247.132950,120.024895 
	C244.068558,119.980148 241.004166,119.935402 237.339569,119.332504 
	C236.524780,119.222458 235.710037,119.016426 234.895218,119.016121 
	C192.867264,119.000420 150.839325,118.994843 108.811417,119.038010 
	C107.565804,119.039291 106.320732,119.572334 104.287048,119.983131 
	C100.014076,120.037643 100.014076,120.037643 101.765221,122.258957 
	C115.022278,133.476013 128.313644,144.652878 141.525040,155.923447 
	C151.274719,164.240845 161.021179,172.567856 170.558670,181.125107 
	C174.022354,184.232773 177.241241,184.572922 180.654938,181.730103 
	C189.618378,174.265549 198.562332,166.772079 207.336945,159.087921 
	C215.526276,151.916306 223.341583,144.314362 231.597244,137.222824 
	C237.869125,131.835342 244.573639,126.951485 251.682175,121.582092 
	C250.774658,121.019905 249.867142,120.457718 248.798508,119.590080 
	C248.546280,119.689842 248.294037,119.789604 247.132950,120.024895 
M101.434326,231.364105 
	C102.682426,231.571014 103.930382,231.957764 105.178658,231.958817 
	C149.979095,231.996735 194.779541,231.999115 239.580002,232.004715 
	C243.242767,232.005173 246.905884,232.009506 250.566971,231.927780 
	C250.709686,231.924591 250.832825,231.043533 250.532852,230.111176 
	C246.958237,227.213043 243.258514,224.454849 239.831604,221.391479 
	C227.816879,210.651260 215.933746,199.763336 203.857162,189.093903 
	C203.029968,188.363113 200.619659,188.386276 199.639236,189.063293 
	C196.800278,191.023682 194.314621,193.495926 191.691528,195.768692 
	C186.738312,200.060425 180.850342,200.057861 174.684128,200.151138 
	C167.444687,200.260635 162.289520,197.337128 157.381180,192.376144 
	C155.299393,190.272018 152.846603,185.697891 148.337036,189.188751 
	C146.124710,190.901306 144.089828,192.844864 141.860611,194.533325 
	C139.053833,196.659256 135.894409,198.372284 133.310349,200.727753 
	C128.991287,204.664780 125.079124,209.043991 120.865997,213.102448 
	C114.643112,219.096848 108.306602,224.973297 101.434326,231.364105 
z"/>
<path fill="#838183" opacity="1.000000" stroke="none" 
	d="
M255.942078,242.884262 
	C258.116394,242.893448 260.290741,242.902634 262.939606,242.945053 
	C262.240265,243.322205 261.066681,243.965912 259.892487,243.966965 
	C203.700699,244.017288 147.508896,244.012772 91.317078,244.004272 
	C90.660599,244.004166 90.004143,243.871628 89.168304,243.399658 
	C91.713020,243.004318 94.437103,243.010223 98.072060,242.996140 
	C105.301674,242.943222 111.620422,242.910294 117.939163,242.877350 
	C119.690323,242.921432 121.441475,242.965500 124.087738,242.994690 
	C168.635925,242.947952 212.289001,242.916107 255.942078,242.884262 
z"/>
<path fill="#838183" opacity="1.000000" stroke="none" 
	d="
M261.757507,108.586815 
	C204.599457,109.003181 147.274948,109.019348 89.483017,109.016609 
	C90.166298,108.668755 91.316727,108.053047 92.467712,108.052010 
	C148.516235,108.001160 204.564789,108.002937 260.613342,108.007179 
	C260.939240,108.007202 261.265167,108.124229 261.757507,108.586815 
z"/>
<path fill="#B8B8B8" opacity="1.000000" stroke="none" 
	d="
M276.962250,228.399384 
	C276.627716,227.187637 276.076294,225.518402 276.072235,223.847839 
	C275.989960,190.194321 275.970642,156.540649 275.964294,122.415009 
	C276.325745,123.577164 276.951874,125.210838 276.954651,126.845573 
	C277.012421,160.544067 276.999268,194.242691 276.962250,228.399384 
z"/>
<path fill="#BDBBBC" opacity="1.000000" stroke="none" 
	d="
M75.577087,123.244995 
	C75.986389,158.396088 75.991760,193.708527 75.993401,229.486450 
	C75.662720,229.308395 75.049637,228.664780 75.049789,228.021332 
	C75.058311,193.149658 75.118378,158.278015 75.577087,123.244995 
z"/>
<path fill="#D9D7D8" opacity="1.000000" stroke="none" 
	d="
M86.309647,109.122688 
	C83.691849,111.876701 80.680191,114.591469 77.419846,117.491920 
	C74.959785,112.549049 78.547104,109.023460 86.309647,109.122688 
z"/>
<path fill="#000000" opacity="1.000000" stroke="none" 
	d="
M251.085663,121.843552 
	C244.573639,126.951485 237.869125,131.835342 231.597244,137.222824 
	C223.341583,144.314362 215.526276,151.916306 207.336945,159.087921 
	C198.562332,166.772079 189.618378,174.265549 180.654938,181.730103 
	C177.241241,184.572922 174.022354,184.232773 170.558670,181.125107 
	C161.021179,172.567856 151.274719,164.240845 141.525040,155.923447 
	C128.313644,144.652878 115.022278,133.476013 101.629715,121.758759 
	C115.059410,121.501785 128.624725,121.932457 142.189804,121.925194 
	C151.940216,121.919975 161.691269,121.040787 171.440338,121.072533 
	C184.351410,121.114563 197.260666,121.915726 210.171005,121.924034 
	C222.249542,121.931808 234.327713,121.295776 246.408112,121.040672 
	C247.960953,121.007889 249.526169,121.561562 251.085663,121.843552 
z"/>
<path fill="#000000" opacity="1.000000" stroke="none" 
	d="
M102.018494,230.899994 
	C108.306602,224.973297 114.643112,219.096848 120.865997,213.102448 
	C125.079124,209.043991 128.991287,204.664780 133.310349,200.727753 
	C135.894409,198.372284 139.053833,196.659256 141.860611,194.533325 
	C144.089828,192.844864 146.124710,190.901306 148.337036,189.188751 
	C152.846603,185.697891 155.299393,190.272018 157.381180,192.376144 
	C162.289520,197.337128 167.444687,200.260635 174.684128,200.151138 
	C180.850342,200.057861 186.738312,200.060425 191.691528,195.768692 
	C194.314621,193.495926 196.800278,191.023682 199.639236,189.063293 
	C200.619659,188.386276 203.029968,188.363113 203.857162,189.093903 
	C215.933746,199.763336 227.816879,210.651260 239.831604,221.391479 
	C243.258514,224.454849 246.958237,227.213043 250.320221,230.539307 
	C200.744568,230.944946 151.381531,230.922470 102.018494,230.899994 
z"/>
<path fill="#000000" opacity="1.000000" stroke="none" 
	d="
M89.357399,131.971893 
	C99.622704,141.054337 109.902794,150.120117 120.148079,159.225098 
	C126.897202,165.223053 133.596207,171.277390 141.009537,177.927094 
	C123.790855,192.667374 107.322769,206.765091 90.326836,220.593246 
	C89.533722,211.422363 89.144547,202.522568 89.034927,193.619324 
	C88.901558,182.787796 88.912323,171.952255 89.044792,161.120697 
	C89.105331,156.170807 89.791107,151.228668 89.854774,146.278656 
	C89.916077,141.512665 89.540840,136.741043 89.357399,131.971893 
z"/>
<path fill="#000000" opacity="1.000000" stroke="none" 
	d="
M262.973206,141.050049 
	C262.973206,141.050049 262.943054,141.496765 262.573059,141.901154 
	C262.135376,150.081436 262.013855,157.857544 262.047424,165.632996 
	C262.053772,167.108780 262.674622,168.581940 263.011932,170.056320 
	C263.011932,170.056320 262.945831,170.505859 262.968628,171.205276 
	C262.929474,188.575821 262.867554,205.246964 262.805634,221.918091 
	C258.988617,218.856247 255.087372,215.892883 251.370010,212.714493 
	C239.143890,202.261002 226.983978,191.730118 214.799835,181.227570 
	C212.673950,179.395065 212.179077,177.359146 214.367661,175.290771 
	C219.284897,170.643570 224.301819,166.101959 229.228165,161.464279 
	C236.327850,154.780624 243.281769,147.937546 250.515869,141.403839 
	C252.850021,139.295654 255.932449,138.036224 258.551910,136.214966 
	C259.841125,135.318588 260.855103,134.026367 262.270691,132.611145 
	C262.707397,132.858856 262.867004,133.408722 263.026611,133.958572 
	C263.010925,134.131058 262.995239,134.303543 262.978790,135.167084 
	C262.976410,137.588760 262.974792,139.319397 262.973206,141.050049 
z"/>
<path fill="#817E7F" opacity="1.000000" stroke="none" 
	d="
M251.383911,121.712830 
	C249.526169,121.561562 247.960953,121.007889 246.408112,121.040672 
	C234.327713,121.295776 222.249542,121.931808 210.171005,121.924034 
	C197.260666,121.915726 184.351410,121.114563 171.440338,121.072533 
	C161.691269,121.040787 151.940216,121.919975 142.189804,121.925194 
	C128.624725,121.932457 115.059410,121.501785 101.320084,121.647514 
	C100.014076,120.037643 100.014076,120.037643 105.140907,119.976082 
	C149.976440,119.942909 193.958099,119.916786 237.939774,119.890663 
	C241.004166,119.935402 244.068558,119.980148 247.816589,119.990143 
	C248.500244,119.955391 248.959641,119.895523 248.959641,119.895523 
	C249.867142,120.457718 250.774658,121.019905 251.383911,121.712830 
z"/>
<path fill="#D9D7D8" opacity="1.000000" stroke="none" 
	d="
M101.726410,231.132050 
	C151.381531,230.922470 200.744568,230.944946 250.536346,230.769470 
	C250.832825,231.043533 250.709686,231.924591 250.566971,231.927780 
	C246.905884,232.009506 243.242767,232.005173 239.580002,232.004715 
	C194.779541,231.999115 149.979095,231.996735 105.178658,231.958817 
	C103.930382,231.957764 102.682426,231.571014 101.726410,231.132050 
z"/>
<path fill="#110F10" opacity="1.000000" stroke="none" 
	d="
M237.639679,119.611588 
	C193.958099,119.916786 149.976440,119.942909 105.535088,119.913239 
	C106.320732,119.572334 107.565804,119.039291 108.811417,119.038010 
	C150.839325,118.994843 192.867264,119.000420 234.895218,119.016121 
	C235.710037,119.016426 236.524780,119.222458 237.639679,119.611588 
z"/>
<path fill="#161213" opacity="1.000000" stroke="none" 
	d="
M255.639221,242.608521 
	C212.289001,242.916107 168.635925,242.947952 124.521492,242.929749 
	C125.303352,242.588135 126.546295,242.042969 127.789795,242.041687 
	C169.656281,241.998627 211.522842,242.005890 253.389389,242.022034 
	C254.038406,242.022278 254.687363,242.224716 255.639221,242.608521 
z"/>
<path fill="#504E4F" opacity="1.000000" stroke="none" 
	d="
M88.993652,132.150909 
	C89.540840,136.741043 89.916077,141.512665 89.854774,146.278656 
	C89.791107,151.228668 89.105331,156.170807 89.044792,161.120697 
	C88.912323,171.952255 88.901558,182.787796 89.034927,193.619324 
	C89.144547,202.522568 89.533722,211.422363 89.988327,220.619232 
	C89.706863,221.418915 89.236053,221.923050 87.998726,223.247971 
	C87.998726,220.696091 87.998726,219.210526 87.991966,216.875031 
	C87.971962,189.697998 87.958710,163.370911 87.945457,137.043823 
	C88.173607,135.472519 88.401764,133.901230 88.993652,132.150909 
z"/>
<path fill="#171717" opacity="1.000000" stroke="none" 
	d="
M87.657227,137.337357 
	C87.958710,163.370911 87.971962,189.697998 87.961151,216.487732 
	C87.625420,215.718964 87.044411,214.488083 87.041832,213.256012 
	C86.990334,188.692734 87.002876,164.129318 87.022560,139.565948 
	C87.023079,138.920822 87.248474,138.275909 87.657227,137.337357 
z"/>
<path fill="#504E4F" opacity="1.000000" stroke="none" 
	d="
M263.044495,222.104706 
	C262.867554,205.246964 262.929474,188.575821 262.984863,171.431885 
	C263.312073,172.678726 263.923920,174.396515 263.935425,176.118332 
	C264.024506,189.444946 263.997620,202.772354 264.020081,216.803391 
	C264.033508,217.507278 264.040497,217.977570 264.040497,217.977570 
	C263.788116,219.415482 263.535706,220.853409 263.044495,222.104706 
z"/>
<path fill="#FFFFFF" opacity="1.000000" stroke="none" 
	d="
M263.065857,169.586731 
	C262.674622,168.581940 262.053772,167.108780 262.047424,165.632996 
	C262.013855,157.857544 262.135376,150.081436 262.607849,142.122314 
	C263.048340,150.998413 263.084045,160.057770 263.065857,169.586731 
z"/>
<path fill="#161213" opacity="1.000000" stroke="none" 
	d="
M117.635605,242.603210 
	C111.620422,242.910294 105.301674,242.943222 98.521774,242.927032 
	C104.484428,242.694946 110.908234,242.511993 117.635605,242.603210 
z"/>
<path fill="#504E4F" opacity="1.000000" stroke="none" 
	d="
M263.271912,140.820007 
	C262.974792,139.319397 262.976410,137.588760 262.987793,135.426727 
	C263.188629,136.860229 263.379639,138.725098 263.271912,140.820007 
z"/>
<path fill="#504E4F" opacity="1.000000" stroke="none" 
	d="
M263.287018,133.792831 
	C262.867004,133.408722 262.707397,132.858856 262.257812,132.269531 
	C262.449249,131.966370 262.930634,131.702698 263.412048,131.439026 
	C263.457153,132.168381 263.502289,132.897736 263.287018,133.792831 
z"/>
<path fill="#171717" opacity="1.000000" stroke="none" 
	d="
M264.199158,217.896912 
	C264.040497,217.977570 264.033508,217.507278 264.054504,217.273407 
	C264.232910,217.199661 264.404968,217.349167 264.534943,217.529099 
	C264.560120,217.563950 264.421082,217.717468 264.199158,217.896912 
z"/>
<path fill="#110F10" opacity="1.000000" stroke="none" 
	d="
M248.879074,119.742798 
	C248.959641,119.895523 248.500244,119.955391 248.271027,119.922379 
	C248.294037,119.789604 248.546280,119.689842 248.879074,119.742798 
z"/>
</svg>